HIERARCHY
ROOT hip
{
	OFFSET 0.000000 0.000000 0.000000 
	CHANNELS 6 Xposition Yposition Zposition Xrotation Zrotation Yrotation
	JOINT abdomen
	{
		OFFSET 0.000000 3.402643 0.000000 
		CHANNELS 3 Xrotation Zrotation Yrotation
		JOINT chest
		{
			OFFSET 0.000000 8.438565 -0.680529 
			CHANNELS 3 Xrotation Zrotation Yrotation
			JOINT neck
			{
				OFFSET 0.000000 10.207942 -0.272212 
				CHANNELS 3 Xrotation Zrotation Yrotation
				JOINT head
				{
					OFFSET 0.000000 3.130431 0.000000 
					CHANNELS 3 Xrotation Zrotation Yrotation
					End Site
					{
						OFFSET 0.000000 3.130435 0.000000 
					}
				}
			}
			JOINT lCollar
			{
				OFFSET 3.470700 6.669187 -0.816635 
				CHANNELS 3 Yrotation Zrotation Xrotation
				JOINT lShldr
				{
					OFFSET 3.198488 0.000000 0.000000 
					CHANNELS 3 Zrotation Yrotation Xrotation
					JOINT lForeArm
					{
						OFFSET 10.139888 0.000000 0.000000 
						CHANNELS 3 Yrotation Zrotation Xrotation
						JOINT lHand
						{
							OFFSET 8.370511 0.000000 0.000000 
							CHANNELS 3 Zrotation Yrotation Xrotation
							End Site
							{
								OFFSET 4.083176 0.000000 0.000000 
							}
						}
					}
				}
			}
			JOINT rCollar
			{
				OFFSET -3.470700 6.669187 -0.816635 
				CHANNELS 3 Yrotation Zrotation Xrotation
				JOINT rShldr
				{
					OFFSET -3.198488 0.000000 0.000000 
					CHANNELS 3 Zrotation Yrotation Xrotation
					JOINT rForeArm
					{
						OFFSET -10.139888 0.000000 0.000000 
						CHANNELS 3 Yrotation Zrotation Xrotation
						JOINT rHand
						{
							OFFSET -8.370511 0.000000 0.000000 
							CHANNELS 3 Zrotation Yrotation Xrotation
							End Site
							{
								OFFSET -4.083176 0.000000 0.000000 
							}
						}
					}
				}
			}
		}
	}
	JOINT lThigh
	{
		OFFSET 5.308129 -1.633274 1.361059 
		CHANNELS 3 Xrotation Zrotation Yrotation
		JOINT lShin
		{
			OFFSET -2.041588 -20.007561 0.000000 
			CHANNELS 3 Xrotation Zrotation Yrotation
			JOINT lFoot
			{
				OFFSET 0.000000 -19.190928 -1.224953 
				CHANNELS 3 Xrotation Yrotation Zrotation
				End Site
				{
					OFFSET 0.000000 -2.449906 4.627600 
				}
			}
		}
	}
	JOINT rThigh
	{
		OFFSET -5.308129 -1.633274 1.361059 
		CHANNELS 3 Xrotation Zrotation Yrotation
		JOINT rShin
		{
			OFFSET 2.041588 -20.007561 0.000000 
			CHANNELS 3 Xrotation Zrotation Yrotation
			JOINT rFoot
			{
				OFFSET 0.000000 -19.190928 -1.224953 
				CHANNELS 3 Xrotation Yrotation Zrotation
				End Site
				{
					OFFSET 0.000000 -2.449906 4.627600 
				}
			}
		}
	}
}
MOTION
Frames: 8
Frame Time: 0.016667
-18.938173 49.923313 -85.070961 -5.577822 -4.554313 -28.026073 30.738859 1.593263 -1.041899 6.416427 3.137219 -5.913564 9.042005 12.926112 1.342961 7.172917 -7.981246 38.634945 -25.377604 -8.863382 -0.467442 -68.418907 -2.535544 -10.207754 -67.674255 5.000000 -7.512252 -18.455969 -19.028534 -45.000000 12.923217 10.630538 -0.564295 69.229897 11.120103 7.153183 84.488419 5.000000 2.380740 13.338350 -18.920650 -13.576291 9.069291 -4.236303 6.937593 40.798637 -4.927693 -4.588380 -35.885563 -8.226306 -0.146182 -16.552896 8.183420 -6.667407 13.525360 8.328221 2.341152 10.946397 -2.349358 10.620333 
-18.967493 49.905300 -85.739456 -5.840569 -4.825561 -28.332159 30.920263 1.575197 -0.897596 6.434004 3.069232 -5.845297 9.273848 12.993650 1.404533 7.339794 -7.786449 38.435078 -25.349781 -9.038928 -0.476491 -68.427391 -2.375641 -10.586029 -67.633202 5.000000 -7.404613 -18.489048 -19.050562 -45.000000 12.990173 10.671729 -0.556962 69.131714 10.955871 6.688851 84.408928 5.000000 2.465170 13.437984 -18.932953 -13.644412 8.919865 -4.166095 7.199515 40.572914 -4.917679 -4.574228 -35.609325 -7.756643 1.802163 -16.975203 8.297573 -6.455396 13.356747 8.170865 2.278078 13.090100 -1.639280 12.951432 
-18.990185 49.923019 -86.405304 -6.109601 -5.083673 -28.698069 31.131374 1.505742 -0.733648 6.433068 2.991521 -5.776520 9.510327 13.063901 1.484954 7.465734 -7.599721 38.296074 -25.303139 -9.292495 -0.491132 -68.364281 -2.230792 -10.893804 -67.591316 5.000000 -7.322221 -18.539593 -19.093147 -45.000000 13.069563 10.798508 -0.563528 68.900246 10.819756 6.266797 84.351105 5.000000 2.504874 13.490550 -18.930796 -13.661843 8.680513 -4.090838 7.511337 40.408569 -4.907985 -4.497767 -35.057034 -7.178133 3.360615 -17.430603 8.329302 -6.029143 13.347303 7.956195 2.236460 15.040711 -0.810315 15.377298 
-19.007944 49.967449 -87.066612 -6.374320 -5.339208 -29.074335 31.362846 1.440776 -0.535333 6.442344 2.904049 -5.697987 9.745018 13.142407 1.554499 7.589601 -7.428601 38.149185 -25.266407 -9.555809 -0.504733 -68.291710 -2.086772 -11.192519 -67.546921 5.000000 -7.249284 -18.577219 -19.136467 -45.000000 13.149165 10.944789 -0.571101 68.651733 10.680340 5.863944 84.305214 5.000000 2.545336 13.553147 -18.926308 -13.682450 8.404300 -3.971861 7.802574 40.261662 -4.914155 -4.447928 -34.487946 -6.536275 4.788638 -17.879025 8.329149 -5.571504 13.447639 7.782075 2.231033 16.734015 0.065872 17.708172 
-19.020550 50.037937 -87.722878 -6.611588 -5.629673 -29.551113 31.643328 1.381122 -0.284467 6.443511 2.787322 -5.551108 9.890299 13.238823 1.611714 7.704237 -7.301957 38.018532 -25.249365 -9.828876 -0.518824 -68.170502 -2.012891 -11.398375 -67.489799 5.000000 -7.209055 -18.567614 -19.204041 -45.000000 13.190332 11.149585 -0.581697 68.318130 10.620167 5.587051 84.274712 5.000000 2.602566 13.597636 -18.907688 -13.687691 8.045294 -3.748737 8.116349 40.186516 -4.878069 -4.429266 -33.843693 -5.821095 5.552132 -18.397518 8.183008 -4.858952 14.085657 7.681226 2.327028 17.580601 0.887246 19.758118 
-19.028658 50.135670 -88.372871 -6.851555 -5.915699 -30.050001 31.943964 1.324292 -0.020882 6.453094 2.680291 -5.384696 10.018845 13.346227 1.676888 7.813438 -7.183465 37.877201 -25.242346 -10.121443 -0.533908 -68.039452 -1.939716 -11.594874 -67.429382 5.000000 -7.179277 -18.555292 -19.281061 -45.000000 13.221879 11.364130 -0.592789 67.974342 10.574248 5.323941 84.255898 5.000000 2.660219 13.652149 -18.886765 -13.692908 7.692646 -3.504028 8.410980 40.101795 -4.839097 -4.408044 -33.206760 -5.048732 6.237967 -18.888571 8.023975 -4.083360 14.821977 7.605225 2.405836 18.179388 1.694172 21.721796 
-19.035763 50.251850 -89.015114 -7.020167 -6.278536 -30.614220 32.275696 1.322341 0.296912 6.444085 2.583098 -5.208573 10.109936 13.401273 1.721148 7.884418 -7.075268 37.787930 -25.205921 -10.394510 -0.549738 -67.920158 -1.925421 -11.729251 -67.372322 5.000000 -7.189386 -18.544813 -19.365400 -45.000000 13.272687 11.549420 -0.604317 67.623901 10.582362 5.174153 84.242615 5.000000 2.684668 13.685770 -18.882137 -13.687594 7.312055 -3.133129 8.703757 40.015190 -4.829523 -4.367864 -32.558018 -4.357721 6.637531 -19.423660 7.831872 -3.249514 15.988515 7.651961 2.574184 18.028873 2.300415 23.295507 
-19.041452 50.388229 -89.650375 -7.125093 -6.699712 -31.233763 32.631760 1.379829 0.704753 6.434868 2.505450 -5.012955 10.167982 13.406695 1.761043 7.910144 -6.979506 37.730129 -25.130512 -10.667583 -0.563841 -67.821205 -1.981536 -11.805520 -67.328537 5.000000 -7.230969 -18.524120 -19.464172 -45.000000 13.323104 11.695702 -0.611894 67.276489 10.645628 5.140306 84.212868 5.000000 2.689575 13.712609 -18.877518 -13.688096 6.909243 -2.643901 8.981556 39.919735 -4.809904 -4.323412 -31.877039 -3.740119 6.758608 -19.978291 7.606134 -2.404825 17.605522 7.859670 2.909497 17.149897 2.662867 24.442551 
